<svg xmlns="http://www.w3.org/2000/svg" viewBox="0 0 18.22 18.54"><defs><style>.cls-1{fill:#fff;}</style></defs><title>Refresh</title><g id="Layer_2" data-name="Layer 2"><g id="Layer_1-2" data-name="Layer 1"><path class="cls-1" d="M1.62,14.14a8.11,8.11,0,0,1-.75-4.09A7.87,7.87,0,0,1,2.2,6.21c.41-.64,1-.75,1.86-.34a1.39,1.39,0,0,1,.56.84,1.08,1.08,0,0,1-.18,1,5.71,5.71,0,0,0-.85,2.41,5.27,5.27,0,0,0,.32,2.57.72.72,0,0,0,.42.42.7.7,0,0,0,.6-.05L6,12.38a.33.33,0,0,1,.39,0,.32.32,0,0,1,.16.35L5.91,17.7a.65.65,0,0,1-.35.47.68.68,0,0,1-.62,0L.24,16.39A.31.31,0,0,1,0,16.08a.37.37,0,0,1,.19-.34l1.17-.68a.56.56,0,0,0,.32-.4A.77.77,0,0,0,1.62,14.14ZM8.9,5.84V7.07a.32.32,0,0,1-.21.32.33.33,0,0,1-.38,0L4.22,4.28a.68.68,0,0,1-.28-.57.62.62,0,0,1,.28-.55L8.31.07a.37.37,0,0,1,.38,0A.35.35,0,0,1,8.9.38V1.71a.66.66,0,0,0,.2.48.75.75,0,0,0,.47.23,8,8,0,0,1,3.91,1.37,8.08,8.08,0,0,1,2.68,3.09,1.17,1.17,0,0,1,.06,1,1.36,1.36,0,0,1-.69.76h0a1.33,1.33,0,0,1-1,.07,1.26,1.26,0,0,1-.76-.63,5.49,5.49,0,0,0-4-3,.71.71,0,0,0-.58.16A.63.63,0,0,0,8.9,5.84Zm6.66,9.46a7.81,7.81,0,0,1-3.15,2.51,8.6,8.6,0,0,1-4,.72,1.33,1.33,0,0,1-.89-.43,1.14,1.14,0,0,1-.32-.87v0a1.2,1.2,0,0,1,.44-.82,1.22,1.22,0,0,1,.92-.31,5.75,5.75,0,0,0,2.52-.45,5.25,5.25,0,0,0,2-1.57.59.59,0,0,0,.16-.56.68.68,0,0,0-.35-.49l-1.07-.63a.36.36,0,0,1-.19-.34.33.33,0,0,1,.24-.32l4.72-2a.77.77,0,0,1,.63,0,.6.6,0,0,1,.32.5l.63,5.09a.35.35,0,0,1-.16.36.35.35,0,0,1-.39,0l-1.16-.68A.65.65,0,0,0,15.56,15.3Z"/></g></g></svg>